<?xml version="1.0" encoding="utf-8"?>
<!-- Generator: Adobe Illustrator 28.4.1, SVG Export Plug-In . SVG Version: 6.00 Build 0)  -->
<svg version="1.1" id="Layer_1" xmlns="http://www.w3.org/2000/svg" xmlns:xlink="http://www.w3.org/1999/xlink" x="0px" y="0px"
	 viewBox="0 0 166 32.9" style="enable-background:new 0 0 166 32.9;" xml:space="preserve">
<style type="text/css">
	@keyframes dash{0%{stroke-dashoffset:var(--len)}to{stroke-dashoffset:0}}@keyframes fade{0%{opacity:1;fill-opacity:0;stroke-width:.5px}to{opacity:1;fill-opacity:1;stroke-width:1px}}.st0{fill:transparent;}.letter{fill:#00AEEC;stroke:#00AEEC;stroke-linecap:round;stroke-linejoin:round;stroke-width:1px;stroke-dasharray:var(--len);stroke-dashoffset:var(--len);opacity:0;animation:dash 1.6s cubic-bezier(.6,0,.2,1) forwards,fade 1.6s cubic-bezier(.6,0,.2,1) forwards}.letter1{animation-delay:0s;--len:193.06246948242188px}.letter2{animation-delay:.1s;--len:61.19465637207031px}.letter3{animation-delay:.2s;--len:71.88196563720703px}.letter4{animation-delay:.3s;--len:61.19468688964844px}.letter5{animation-delay:.4s;--len:120.72344970703125px}.letter6{animation-delay:.5s}.letter6,.letter7{--len:122.48882293701172px}.letter7{animation-delay:.6s}.letter8{animation-delay:.7s;--len:71.88206481933594px}.letter9{animation-delay:.8s;--len:114.1632308959961px}
</style>
<rect x="0.5" y="0.4" class="st0" width="165" height="32.2"/>
<path class="letter letter1" d="M2.9,32c-0.5,0-0.9-0.1-1.3-0.4s-0.5-0.7-0.5-1.1V2.4c0-0.5,0.2-0.8,0.4-1.1s0.7-0.4,1.1-0.4h9.7c1.6,0,3,0.3,4.3,1
	s2.3,1.6,3.1,2.8s1.3,2.4,1.3,4c0,1.4-0.4,2.7-1.2,3.8s-1.8,2-3,2.6c1.8,0.5,3.2,1.4,4.3,2.7c1.1,1.3,1.6,3,1.6,5
	c0,1.8-0.4,3.4-1.2,4.8c-0.8,1.4-2,2.5-3.4,3.3c-1.5,0.8-3.1,1.2-5,1.2C13.1,32,2.9,32,2.9,32z M4.3,13.8h8.2c1.6,0,2.9-0.4,4-1.4
	c1-0.9,1.6-2.2,1.6-3.8C18,7,17.4,5.8,16.4,5s-2.4-1.2-4-1.2H4.2L4.3,13.8z M4.3,29h8.8c1.3,0,2.4-0.2,3.4-0.8s1.8-1.2,2.3-2.2
	s0.8-2,0.8-3.3c0-1.2-0.3-2.2-0.8-3.1s-1.3-1.6-2.3-2.1s-2.1-0.7-3.4-0.7H4.3V29z"/>
<path class="letter letter2" d="M30.7,6c-0.6,0-1.1-0.2-1.5-0.6s-0.6-1-0.6-1.6c0-0.7,0.2-1.2,0.7-1.6s1-0.6,1.5-0.6s1.1,0.2,1.5,0.6S33,3.1,33,3.8
	c0,0.6-0.2,1.1-0.6,1.6C31.8,5.8,31.3,6,30.7,6z M30.8,32c-0.5,0-0.9-0.1-1.1-0.4c-0.3-0.3-0.4-0.7-0.4-1.1V11.7
	c0-0.5,0.1-0.9,0.4-1.1c0.3-0.3,0.7-0.4,1.1-0.4c0.5,0,0.8,0.1,1.1,0.4c0.3,0.3,0.4,0.7,0.4,1.1v18.8c0,0.5-0.1,0.9-0.4,1.1
	C31.6,31.9,31.2,32,30.8,32z"/>
<path class="letter letter3" d="M44.8,32c-1.1,0-2-0.3-2.9-0.9s-1.5-1.4-2-2.4s-0.7-2.2-0.7-3.6V2.3c0-0.5,0.1-0.8,0.4-1.1s0.7-0.4,1.1-0.4s0.8,0.1,1.1,0.4
	s0.4,0.7,0.4,1.1v22.8c0,1.1,0.2,2.1,0.7,2.8S44,29,44.7,29h1c0.4,0,0.7,0.1,1,0.4c0.2,0.3,0.4,0.6,0.4,1.1s-0.2,0.8-0.5,1.1
	c-0.3,0.3-0.8,0.4-1.3,0.4C45.4,32,44.8,32,44.8,32z"/>
<path class="letter letter4" d="M53.6,6C53,6,52.5,5.8,52,5.3s-0.6-1-0.6-1.6c0-0.7,0.2-1.2,0.7-1.6s1-0.6,1.5-0.6c0.6,0,1.1,0.2,1.5,0.6s0.7,0.9,0.7,1.6
	c0,0.6-0.2,1.1-0.6,1.6C54.7,5.8,54.2,6,53.6,6z M53.6,32c-0.5,0-0.9-0.1-1.1-0.4S52,30.9,52,30.5V11.7c0-0.5,0.1-0.9,0.4-1.1
	s0.7-0.4,1.1-0.4c0.5,0,0.8,0.1,1.1,0.4s0.4,0.7,0.4,1.1v18.8c0,0.5-0.1,0.9-0.4,1.1C54.4,31.9,54,32,53.6,32z"/>
<path class="letter letter5" d="M61.4,3.6c-0.4,0-0.8-0.1-1-0.4S60,2.6,60,2.2s0.1-0.8,0.4-1s0.6-0.4,1-0.4h22.1c0.4,0,0.8,0.1,1,0.4c0.3,0.3,0.4,0.6,0.4,1
	s-0.1,0.7-0.4,1s-0.6,0.4-1,0.4C83.5,3.6,61.4,3.6,61.4,3.6z M72.4,32c-0.4,0-0.8-0.1-1.1-0.5s-0.5-0.7-0.5-1.1V0.7h3.1v29.7
	c0,0.4-0.2,0.8-0.4,1.1S72.9,32,72.4,32z"/>
<path class="letter letter6" d="M93.1,32.2c-2.1,0-4-0.5-5.7-1.4s-3-2.3-4-4S82,23.2,82,21.1s0.5-4.1,1.4-5.8c1-1.7,2.3-3,4-4s3.6-1.4,5.7-1.4
	s4,0.5,5.7,1.4s3,2.3,3.9,4c1,1.7,1.4,3.6,1.5,5.8c0,2.1-0.5,4-1.5,5.7s-2.3,3-4,4C97.1,31.7,95.2,32.2,93.1,32.2z M93.1,29.4
	c1.6,0,2.9-0.4,4.2-1.1c1.2-0.7,2.2-1.7,2.9-3c0.7-1.2,1-2.7,1-4.3s-0.3-3-1-4.3s-1.7-2.3-2.9-3c-1.2-0.7-2.6-1.1-4.2-1.1
	s-2.9,0.4-4.2,1.1c-1.2,0.7-2.2,1.7-2.9,3s-1,2.8-1,4.4s0.3,3,1.1,4.3s1.7,2.2,2.9,3C90.2,29.1,91.6,29.4,93.1,29.4z"/>
<path class="letter letter7" d="M120.2,32.2c-2.1,0-4-0.5-5.7-1.4s-3-2.3-4-4s-1.4-3.6-1.4-5.7s0.5-4.1,1.4-5.8c1-1.7,2.3-3,4-4s3.6-1.4,5.7-1.4
	s4,0.5,5.7,1.4c1.7,1,3,2.3,3.9,4c1,1.7,1.4,3.6,1.5,5.8c0,2.1-0.5,4-1.5,5.7s-2.3,3-4,4S122.3,32.2,120.2,32.2L120.2,32.2z
	 M120.2,29.4c1.6,0,2.9-0.4,4.2-1.1c1.2-0.7,2.2-1.7,2.9-3c0.7-1.2,1-2.7,1-4.3s-0.3-3-1-4.3s-1.7-2.3-2.9-3s-2.6-1.1-4.2-1.1
	s-2.9,0.4-4.2,1.1c-1.2,0.7-2.2,1.7-2.9,3S112,19.4,112,21s0.3,3,1.1,4.3s1.7,2.2,2.9,3C117.3,29.1,118.6,29.4,120.2,29.4z"/>
<path class="letter letter8" d="M142,32c-1.1,0-2-0.3-2.9-0.9s-1.5-1.4-2-2.4s-0.7-2.2-0.7-3.6V2.3c0-0.5,0.1-0.8,0.4-1.1s0.6-0.4,1.1-0.4s0.8,0.1,1.1,0.4
	s0.4,0.7,0.4,1.1v22.8c0,1.1,0.2,2.1,0.7,2.8s1.1,1.1,1.8,1.1h1c0.4,0,0.7,0.1,1,0.4s0.4,0.6,0.4,1.1s-0.2,0.8-0.5,1.1
	S143,32,142.5,32C142.5,32,142,32,142,32z"/>
<path class="letter letter9" d="M156.2,32.2c-1.6,0-3.1-0.3-4.7-0.8c-1.6-0.5-2.8-1.3-3.8-2.4c-0.3-0.3-0.4-0.7-0.4-1.1s0.2-0.8,0.6-1
	c0.4-0.3,0.8-0.4,1.2-0.3c0.4,0,0.7,0.2,1,0.5c0.6,0.8,1.5,1.3,2.5,1.7c1.1,0.4,2.2,0.6,3.5,0.6c2,0,3.4-0.3,4.3-1s1.3-1.5,1.4-2.5
	c0-1-0.4-1.8-1.4-2.4s-2.4-1.1-4.5-1.5c-2.7-0.4-4.7-1.2-5.9-2.2s-1.9-2.3-1.9-3.8c0-1.4,0.4-2.5,1.1-3.4c0.7-0.9,1.7-1.6,2.9-2
	s2.5-0.7,4-0.7c1.8,0,3.3,0.3,4.6,0.9c1.3,0.6,2.3,1.4,3.1,2.5c0.3,0.4,0.4,0.7,0.3,1.1c-0.1,0.4-0.3,0.7-0.6,0.9s-0.7,0.2-1.1,0.2
	s-0.8-0.3-1.1-0.6c-0.7-0.8-1.4-1.3-2.3-1.7s-1.9-0.5-3-0.5c-1.5,0-2.6,0.3-3.5,0.9c-0.9,0.6-1.3,1.4-1.3,2.3c0,0.6,0.2,1.1,0.5,1.6
	s0.9,0.9,1.7,1.2s1.9,0.6,3.4,0.9c2,0.3,3.6,0.8,4.7,1.4c1.2,0.6,2,1.4,2.5,2.2s0.7,1.8,0.7,2.7c0,1.2-0.4,2.4-1.1,3.3
	c-0.7,1-1.8,1.7-3,2.2C159.4,32,157.9,32.2,156.2,32.2L156.2,32.2z"/>
</svg>
