<?xml version="1.0" encoding="UTF-8"?>
<svg id="Layer_1" data-name="Layer 1" xmlns="http://www.w3.org/2000/svg" viewBox="0 0 215.6 195.57">
  <defs>
    <style>
      .cls-1 {
        fill: #ff6989;
        stroke-width: 0px;
      }
    </style>
  </defs>
  <path class="cls-1" d="M166.6,32.74c3.39,0,6.51,0,9.62,0,6.11-.02,12.08.78,17.75,3.15,3.55,1.49,6.85,3.45,9.8,5.99,5.13,4.41,8.45,9.94,10.4,16.36.86,2.83,1.42,5.71,1.42,8.68,0,30.94.04,61.88-.05,92.82-.01,4.56-1.3,8.97-3.13,13.17-2.18,4.99-5.38,9.29-9.48,12.85-4.99,4.34-10.68,7.39-17.24,8.59-2.51.46-5.05.74-7.59.95-2.41.2-4.84.25-7.26.25-43.72.01-87.44.04-131.17-.02-6.69-.01-13.19-1.38-19.15-4.59-4.19-2.26-7.83-5.22-10.94-8.89-4.64-5.47-7.44-11.73-8.61-18.75-.35-2.13-.69-4.29-.7-6.44C.15,130.5.09,104.14,0,77.78c0-1.44-.02-2.88,0-4.32.09-7.44,1.43-14.59,5.08-21.18,3.25-5.87,7.65-10.63,13.51-14,4.82-2.77,9.96-4.62,15.5-5.02,5.27-.38,10.56-.37,15.85-.52.23,0,.47,0,.9,0-.32-.38-.52-.64-.75-.87-2.94-2.94-5.82-5.94-8.83-8.8-3.51-3.34-4.81-7.43-4.3-12.12.66-6.01,5.51-10.3,11.09-10.86,4.99-.51,8.93,1.19,12.38,4.67,3.59,3.61,7.33,7.07,11.02,10.58,2.96,2.82,5.95,5.63,8.92,8.44,3,2.84,6,5.69,9.02,8.51.28.26.75.44,1.14.44,11.83.02,23.66.03,35.49,0,.53,0,1.18-.26,1.57-.62,3.15-2.92,6.24-5.9,9.37-8.84,3.59-3.37,7.19-6.72,10.79-10.08,2.29-2.14,4.57-4.29,6.89-6.4,1.72-1.56,3.41-3.19,5.3-4.55,2.67-1.92,5.74-2.38,9.03-2.15,3.38.24,6.16,1.5,8.4,3.95,2,2.18,3.04,4.8,3.2,7.77.17,3.06-.29,5.97-2.1,8.53-.68.96-1.44,1.88-2.26,2.72-2.85,2.91-5.75,5.77-8.64,8.66-.27.27-.53.56-.98,1.03ZM107.94,168.94c22.22,0,44.44-.02,66.66.02,4.34,0,8.04-1.34,10.93-4.62,2.26-2.57,3.69-5.53,3.69-9.05,0-27.57,0-55.14,0-82.72,0-.48,0-.96-.09-1.42-.56-3.12-2.13-5.63-4.41-7.85-2.73-2.64-5.95-3.93-9.66-3.94-44.8-.02-89.6-.02-134.39,0-3.76,0-7.05,1.39-9.76,4-2.97,2.86-4.23,6.51-4.24,10.51-.05,27.01-.05,54.02,0,81.04,0,2.68.68,5.26,2.25,7.55,2.96,4.32,7.03,6.47,12.26,6.47,22.26,0,44.52,0,66.78,0Z"/>
  <path class="cls-1" d="M80.72,93.55c1.38-1.51,2.84-3.17,4.38-4.76.96-.99,2.62-.91,3.67.26,1.69,1.87,3.31,3.8,4.86,5.79,3.65,4.72,6.25,10,8.06,15.68,1.27,3.98,1.22,7.99.41,12.02-.92,4.61-2.91,8.76-5.88,12.37-3.96,4.81-8.95,8.09-15.13,9.31-7.52,1.49-14.48.07-20.67-4.48-5.69-4.18-9.34-9.78-10.75-16.73-.4-1.99-.58-4.04-.72-6.08-.26-3.79.95-7.29,2.44-10.68,2.39-5.45,5.64-10.39,9.55-14.87,2.19-2.51,4.52-4.9,6.82-7.31,1.09-1.13,2.78-1.1,3.9.05,3.07,3.16,6.1,6.34,9.07,9.43ZM77.19,132.97c1.65,0,3.03-.37,5.82-1.81,6.06-3.13,7.49-10.87,4.51-16.45-.53-1-1.52-1.16-2.32-.35-.94.95-1.87,1.95-2.67,3.02-1.18,1.56-2.68,1.74-3.94.27-1.07-1.25-2.02-2.6-3.04-3.89-1.42-1.78-2.8-3.6-4.3-5.31-1.07-1.22-1.56-1.18-2.7.04-.67.71-1.25,1.51-1.83,2.3-2.33,3.15-4.52,6.33-4.13,10.58.26,2.74,1.13,5.19,2.97,7.24,2.76,3.09,6.28,4.47,11.64,4.38Z"/>
  <path class="cls-1" d="M150.64,96.81v1.53c0,13.02,0,26.04,0,39.06,0,2.34-.62,4.44-2.52,5.95-2.27,1.8-4.82,2.07-7.43.94-2.59-1.12-3.8-3.29-4.03-6.04-.04-.48-.02-.96-.02-1.44,0-12.82,0-25.64,0-38.46v-1.54c-3.74,0-7.36.02-10.98-.01-.91,0-1.83-.11-2.72-.3-2.81-.62-4.81-3.28-4.87-6.34-.05-3,1.95-5.73,4.77-6.41.92-.22,1.88-.37,2.83-.37,12.06-.02,24.13-.03,36.19,0,2.22,0,4.3.53,5.75,2.4,1.78,2.3,1.99,4.86.79,7.44-1.16,2.49-3.37,3.55-6.03,3.59-3.83.06-7.67.01-11.71.01Z"/>
</svg>