<?xml version="1.0" encoding="utf-8"?>
<!-- Generator: Adobe Illustrator 27.9.0, SVG Export Plug-In . SVG Version: 6.00 Build 0)  -->
<svg version="1.1" id="图层_1" xmlns="http://www.w3.org/2000/svg" xmlns:xlink="http://www.w3.org/1999/xlink" x="0px" y="0px"
	 viewBox="0 0 1901 1024" style="enable-background:new 0 0 1901 1024;" xml:space="preserve">
<style type="text/css">
	.st0{fill:#FFFFFF;}
	.st1{fill:#C0C0C0;}
</style>
<path class="st0" d="M146.3,170.3h1609.1v707.4H146.3V170.3z"/>
<path class="st1" d="M1763.8,73.1c24.9,0,44.5,18.3,43.6,49.4v747.5c0.2,27-21.4,49.1-48.4,49.3c-0.4,0-0.9,0-1.3,0H122.9
	c-27,0.5-49.2-21-49.7-48c0-0.5,0-0.9,0-1.4V209c0-24.6,18.7-49.4,49.7-49.4h1025.5v-37c0-24.7,18.7-49.4,49.7-49.4H1763.8
	L1763.8,73.1z M265.8,264.6h-49.7c-18.6,0-37.3,18.6-37.3,37v488.1c0,18.6,18.7,37,37.3,37h298.4c18.7,0,37.3-18.4,37.3-37v-49.4
	c0-18.7-18.7-37.2-37.3-37.2H303.1V301.6C303.1,283.2,284.5,264.6,265.8,264.6L265.8,264.6z M713.4,264.6h-49.7
	c-18.7,0-37.3,18.6-37.3,37v302.8c-0.4,12.7,0,30.4,6.2,36.9l174.1,173c6.9,6.9,19.5,9.9,29.4,11.3l10,1h8l10-1
	c9.9-1.3,22.6-4.4,29.5-11.3l174.1-173c6.1-6.1,18.6-18.4,18.6-30.9V307.9c0-18.5-18.7-37.1-37.3-37.1h-49.6
	c-18.7,0-37.4,18.6-37.4,37.1v277.9l-105.7,105l-105.6-105V301.6C750.7,283.2,732.1,264.6,713.4,264.6L713.4,264.6z M1658.1,178
	 M1707.9,771.2 M1552.5,295.5c16.6,0,33.2,14.6,36.7,30.9l0.7,6.1v333.7c0,16.5-14.8,32.9-31.2,36.4l-6.2,0.7h-142.9
	c-16.6,0-33.1-14.6-36.6-30.9l-0.7-6.1V332.6c0-16.5,14.7-32.9,31.1-36.4l6.2-0.7L1552.5,295.5L1552.5,295.5z"/>
<path class="st0" d="M1633.8,783.2c0,18.7-18.7,37.4-37.4,37.4h-230.8c-18.7,0-37.4-18.7-37.4-37.4v-42.8
	c0-18.7,18.7-37.2,37.4-37.2h49.9V302.8h-37.4c-18.7,0-37.4-18.7-37.4-37.4v-49.9c0-18.7,18.7-37.4,37.4-37.4h124.8
	c18.7,0,37.4,18.7,37.4,37.4v487.7h49.9c18.7,0,43.7,18.4,43.7,37.2"/>
</svg>
