<?xml version="1.0" encoding="UTF-8"?>
<svg id="Layer_1" data-name="Layer 1" xmlns="http://www.w3.org/2000/svg" viewBox="0 0 3232 1264">
  <defs>
    <style>
      .cls-1 {
        fill: #00aeec;
      }
    </style>
  </defs>
  <g>
    <path class="cls-1" d="M988.93,503.1c16.7,18.1,24.4,39.7,23.3,65.7v202.4c-.4,26.4-9.2,48.1-26.5,65.1-17.2,17-39.1,25.9-65.5,26.7h-327.9c-26.4-.8-48.2-9.8-65.3-27.2-17-17.4-25.9-40.3-26.7-68.6v-198.4c.8-26,9.7-47.6,26.7-65.7,17.1-16.3,38.9-25.3,65.3-26.1h29.4l-25.3-25.8c-5.8-5.7-8.7-13-8.7-21.8s2.9-16.1,8.7-21.8c5.7-5.7,13-8.6,21.8-8.6s16.1,2.9,21.9,8.6l73.3,69.4h88l74.5-69.4c6.1-5.7,13.6-8.6,22.4-8.6s16.1,2.9,21.9,8.6c5.7,5.7,8.6,13,8.6,21.8s-2.9,16.1-8.6,21.8l-25.3,25.8h29.3c26.4.8,48,9.8,64.7,26.1h0ZM950.13,572.8c-.4-9.6-3.7-17.4-10.7-23.5-5.2-6.1-14-9.4-22.7-9.8h-320.3c-9.6.4-17.5,3.7-23.6,9.8-6.2,6.1-9.4,13.9-9.8,23.5v194.4c0,9.2,3.3,17,9.8,23.5s14.4,9.8,23.6,9.8h320.3c9.2,0,17-3.3,23.3-9.8s9.7-14.3,10.1-23.5v-194.4h0Z"/>
    <path class="cls-1" d="M649.82,601.48c2.13-2,5.44-1.97,7.57.03,7.55,7.08,14.63,14.71,21.25,22.97,3.01-3.94,6.43-8.23,10.12-11.73,2.16-2.02,5.5-2.02,7.66.03,9.46,9.02,17.47,20.94,23.1,32.26,5.55,11.16,9.24,22.56,9.24,30.6,0,34.89-27.29,64.36-61.25,64.36s-61.25-29.5-61.25-64.39c0-10.5,4.87-23.32,12.41-36.01,7.63-12.88,18.4-26.3,31.14-38.12h0ZM667.98,713.75c6.92,0,13.04-1.91,18.81-5.74,11.51-8.04,14.6-24.12,7.68-36.75-1.23-2.46-4.37-2.62-6.15-.55l-6.89,8.01c-1.8,2.08-5.06,2.02-6.75-.14-4.51-5.74-12.58-16-17.17-21.82-1.72-2.19-5-2.21-6.75-.03-9.24,11.62-13.89,18.95-13.89,27.18.03,18.73,13.86,29.83,31.12,29.83h0Z"/>
    <g>
      <path class="cls-1" d="M894.99,611.57c1.4,1.39,2.09,3.18,2.09,5.35s-.7,3.95-2.09,5.35-3.18,2.09-5.35,2.09h-33.32v98.11c0,2.27-.78,4.18-2.33,5.73s-3.46,2.33-5.74,2.33-4.18-.78-5.73-2.33-2.33-3.46-2.33-5.73v-98.11h-33.48c-2.17,0-3.95-.7-5.35-2.09s-2.09-3.18-2.09-5.35.7-3.95,2.09-5.35c1.4-1.4,3.18-2.09,5.35-2.09h82.92c2.17,0,3.95.7,5.35,2.09h.01Z"/>
      <path class="cls-1" d="M848.26,740c-4.8,0-9.1-1.76-12.43-5.1-3.34-3.34-5.1-7.64-5.1-12.43v-88.64h-24c-4.7,0-8.86-1.68-12.05-4.87s-4.87-7.35-4.87-12.05,1.68-8.87,4.87-12.05c3.18-3.18,7.35-4.87,12.04-4.87h82.92c4.69,0,8.86,1.68,12.04,4.87h0c3.18,3.18,4.87,7.35,4.87,12.05s-1.68,8.86-4.87,12.05-7.35,4.87-12.05,4.87h-23.85v88.64c0,4.8-1.76,9.1-5.1,12.43-3.34,3.34-7.64,5.1-12.43,5.1h0Z"/>
    </g>
  </g>
  <g>
    <path class="cls-1" d="M1195.69,797.05c-3.68-3.68-5.52-8.21-5.52-13.61v-249.05c0-5.64,1.84-10.24,5.52-13.79,3.68-3.55,8.21-5.33,13.61-5.33h87.92c16.43,0,31.02,3.25,43.78,9.75,12.75,6.5,22.75,15.58,29.98,27.22,7.23,11.65,10.85,24.83,10.85,39.55,0,12.02-3.25,22.81-9.75,32.37-6.5,9.57-15.39,17.29-26.67,23.18,16.67,3.93,29.8,11.77,39.36,23.54,9.56,11.77,14.35,26.73,14.35,44.88,0,16.68-3.99,31.64-11.96,44.88-7.97,13.24-19.13,23.54-33.48,30.9s-30.6,11.04-48.74,11.04h-95.65c-5.4,0-9.93-1.84-13.61-5.52ZM1297.22,633.35c14.47,0,26.06-3.55,34.76-10.67,8.7-7.11,13.06-17.41,13.06-30.9s-4.36-23.73-13.06-30.72c-8.71-6.99-20.3-10.48-34.76-10.48h-68.79v82.77h68.79ZM1304.95,767.26c17.16,0,31.02-4.47,41.57-13.43,10.54-8.95,15.82-21.64,15.82-38.08,0-15.2-5.21-26.86-15.63-34.95-10.43-8.09-24.34-12.14-41.75-12.14h-76.52v98.59h76.52Z"/>
    <path class="cls-1" d="M1457.79,561.43c-4.78-4.78-7.17-10.48-7.17-17.11s2.39-12.32,7.17-17.11c4.78-4.78,10.48-7.17,17.11-7.17s12.32,2.39,17.11,7.17,7.17,10.48,7.17,17.11-2.39,12.32-7.17,17.11-10.48,7.17-17.11,7.17-12.32-2.39-17.11-7.17ZM1461.47,797.24c-3.56-3.55-5.33-8.03-5.33-13.43v-163.7c0-5.64,1.78-10.17,5.33-13.61,3.55-3.43,8.03-5.15,13.43-5.15s10.17,1.72,13.61,5.15c3.43,3.44,5.15,7.97,5.15,13.61v163.7c0,5.4-1.72,9.88-5.15,13.43-3.44,3.56-7.97,5.33-13.61,5.33s-9.88-1.78-13.43-5.33Z"/>
    <path class="cls-1" d="M1582.87,793.93c-8.46-5.76-15.03-13.85-19.68-24.28-4.66-10.42-6.99-22.13-6.99-35.13v-200.86c0-5.39,1.71-9.81,5.15-13.24s7.85-5.15,13.24-5.15,9.8,1.72,13.24,5.15c3.43,3.44,5.15,7.85,5.15,13.24v200.86c0,9.08,1.71,16.55,5.15,22.44,3.43,5.89,7.85,8.83,13.24,8.83h9.2c4.9,0,8.88,1.72,11.96,5.15,3.06,3.44,4.6,7.85,4.6,13.24s-2.33,9.81-6.99,13.24c-4.66,3.44-10.67,5.15-18.03,5.15h-.73c-10.55,0-20.05-2.88-28.51-8.65Z"/>
    <path class="cls-1" d="M1679.25,561.43c-4.78-4.78-7.17-10.48-7.17-17.11s2.39-12.32,7.17-17.11c4.78-4.78,10.48-7.17,17.11-7.17s12.32,2.39,17.11,7.17,7.17,10.48,7.17,17.11-2.39,12.32-7.17,17.11-10.48,7.17-17.11,7.17-12.32-2.39-17.11-7.17ZM1682.93,797.24c-3.56-3.55-5.33-8.03-5.33-13.43v-163.7c0-5.64,1.78-10.17,5.33-13.61,3.55-3.43,8.03-5.15,13.43-5.15s10.17,1.72,13.61,5.15c3.43,3.44,5.15,7.97,5.15,13.61v163.7c0,5.4-1.72,9.88-5.15,13.43-3.44,3.56-7.97,5.33-13.61,5.33s-9.88-1.78-13.43-5.33Z"/>
    <path class="cls-1" d="M1984.58,520.23c3.31,3.31,4.97,7.54,4.97,12.69s-1.66,9.38-4.97,12.69c-3.31,3.31-7.54,4.97-12.69,4.97h-79.09v232.86c0,5.4-1.84,9.93-5.52,13.61s-8.22,5.52-13.61,5.52-9.93-1.84-13.61-5.52-5.52-8.21-5.52-13.61v-232.86h-79.46c-5.15,0-9.38-1.66-12.69-4.97-3.31-3.31-4.97-7.54-4.97-12.69s1.66-9.38,4.97-12.69c3.31-3.31,7.54-4.97,12.69-4.97h196.81c5.15,0,9.38,1.66,12.69,4.97Z"/>
    <path class="cls-1" d="M2011.62,790.98c-15.45-8.7-27.47-20.79-36.05-36.24-8.59-15.45-12.88-32.98-12.88-52.61s4.29-37.52,12.88-52.97c8.58-15.45,20.6-27.53,36.05-36.24,15.45-8.7,32.98-13.06,52.61-13.06s36.72,4.36,52.05,13.06c15.32,8.71,27.34,20.79,36.05,36.24,8.7,15.45,13.06,33.11,13.06,52.97s-4.29,37.16-12.88,52.61c-8.59,15.45-20.54,27.53-35.87,36.24-15.33,8.71-32.8,13.06-52.42,13.06s-37.16-4.35-52.61-13.06ZM2097.89,762.11c9.93-5.89,17.66-14.04,23.18-24.46,5.52-10.42,8.28-22.26,8.28-35.5s-2.76-25.14-8.28-35.68c-5.52-10.54-13.24-18.76-23.18-24.65s-21.15-8.83-33.66-8.83-23.73,2.94-33.66,8.83-17.72,14.11-23.36,24.65c-5.64,10.55-8.46,22.44-8.46,35.68s2.82,25.08,8.46,35.5c5.64,10.43,13.43,18.58,23.36,24.46,9.93,5.89,21.15,8.83,33.66,8.83s23.73-2.94,33.66-8.83Z"/>
    <path class="cls-1" d="M2259.93,790.98c-15.45-8.7-27.47-20.79-36.05-36.24-8.59-15.45-12.88-32.98-12.88-52.61s4.29-37.52,12.88-52.97c8.58-15.45,20.6-27.53,36.05-36.24,15.45-8.7,32.98-13.06,52.61-13.06s36.72,4.36,52.05,13.06c15.32,8.71,27.34,20.79,36.05,36.24,8.7,15.45,13.06,33.11,13.06,52.97s-4.29,37.16-12.88,52.61c-8.59,15.45-20.54,27.53-35.87,36.24-15.33,8.71-32.8,13.06-52.42,13.06s-37.16-4.35-52.61-13.06ZM2346.2,762.11c9.93-5.89,17.66-14.04,23.18-24.46,5.52-10.42,8.28-22.26,8.28-35.5s-2.76-25.14-8.28-35.68c-5.52-10.54-13.24-18.76-23.18-24.65s-21.15-8.83-33.66-8.83-23.73,2.94-33.66,8.83-17.72,14.11-23.36,24.65c-5.64,10.55-8.46,22.44-8.46,35.68s2.82,25.08,8.46,35.5c5.64,10.43,13.43,18.58,23.36,24.46,9.93,5.89,21.15,8.83,33.66,8.83s23.73-2.94,33.66-8.83Z"/>
    <path class="cls-1" d="M2488.93,793.93c-8.46-5.76-15.03-13.85-19.68-24.28-4.66-10.42-6.99-22.13-6.99-35.13v-200.86c0-5.39,1.71-9.81,5.15-13.24s7.85-5.15,13.24-5.15,9.81,1.72,13.24,5.15c3.43,3.44,5.15,7.85,5.15,13.24v200.86c0,9.08,1.71,16.55,5.15,22.44,3.43,5.89,7.85,8.83,13.24,8.83h9.2c4.9,0,8.89,1.72,11.96,5.15,3.06,3.44,4.6,7.85,4.6,13.24s-2.33,9.81-6.99,13.24c-4.66,3.44-10.67,5.15-18.03,5.15h-.74c-10.55,0-20.05-2.88-28.51-8.65Z"/>
    <path class="cls-1" d="M2606.09,796.32c-14.71-5.15-26.25-11.89-34.58-20.23-3.19-3.18-4.78-6.99-4.78-11.4,0-5.89,2.45-10.67,7.36-14.35,4.66-3.43,8.95-5.15,12.88-5.15,4.9,0,9.56,2.21,13.98,6.62,4.66,5.15,11.65,9.63,20.97,13.43,9.32,3.81,19.25,5.7,29.8,5.7,13.98,0,24.83-2.33,32.56-6.99,7.73-4.66,11.59-10.91,11.59-18.76s-3.8-13.92-11.4-18.95c-7.61-5.02-20.48-9.25-38.63-12.69-47.09-9.07-70.63-28.45-70.63-58.12,0-12.01,3.55-22.19,10.67-30.53,7.11-8.33,16.43-14.59,27.96-18.76,11.53-4.17,23.79-6.25,36.79-6.25,15.94,0,30.22,2.58,42.86,7.73,12.63,5.15,22.62,12.27,29.98,21.34,3.18,3.93,4.78,7.85,4.78,11.77,0,4.17-2.09,7.97-6.25,11.4-2.7,1.97-6.13,2.94-10.3,2.94-6.38,0-12.14-2.33-17.29-6.99-6.13-5.64-12.63-9.62-19.5-11.96-6.87-2.33-15.21-3.5-25.02-3.5-11.28,0-20.54,1.9-27.77,5.7-7.24,3.81-10.85,9.14-10.85,16,0,4.91,1.22,9.01,3.68,12.32,2.45,3.31,7.11,6.38,13.98,9.2,6.86,2.82,16.8,5.58,29.8,8.28,26.73,5.4,45.67,12.88,56.84,22.44,11.16,9.56,16.74,21.95,16.74,37.16,0,11.28-3.07,21.52-9.2,30.72-6.13,9.2-15.15,16.43-27.04,21.71-11.9,5.28-26.18,7.91-42.86,7.91s-32.37-2.58-47.09-7.73Z"/>
  </g>
</svg>