<?xml version="1.0" encoding="UTF-8"?>
<svg id="Layer_1" data-name="Layer 1" xmlns="http://www.w3.org/2000/svg" viewBox="0 0 512 464">
  <defs>
    <style>
      .cls-1 {
        fill: #00aeec;
      }
    </style>
  </defs>
  <path class="cls-1" d="M488.6,104.1c16.7,18.1,24.4,39.7,23.3,65.7v202.4c-.4,26.4-9.2,48.1-26.5,65.1-17.2,17-39.1,25.9-65.5,26.7H92c-26.4-.8-48.2-9.8-65.3-27.2C9.7,419.4.8,396.5,0,368.2v-198.4c.8-26,9.7-47.6,26.7-65.7,17.1-16.3,38.9-25.3,65.3-26.1h29.4l-25.3-25.8c-5.8-5.7-8.7-13-8.7-21.8s2.9-16.1,8.7-21.8c5.7-5.7,13-8.6,21.8-8.6s16.1,2.9,21.9,8.6l73.3,69.4h88L375.6,8.6c6.1-5.7,13.6-8.6,22.4-8.6s16.1,2.9,21.9,8.6c5.7,5.7,8.6,13,8.6,21.8s-2.9,16.1-8.6,21.8l-25.3,25.8h29.3c26.4.8,48,9.8,64.7,26.1h0ZM449.8,173.8c-.4-9.6-3.7-17.4-10.7-23.5-5.2-6.1-14-9.4-22.7-9.8H96.1c-9.6.4-17.5,3.7-23.6,9.8-6.2,6.1-9.4,13.9-9.8,23.5v194.4c0,9.2,3.3,17,9.8,23.5s14.4,9.8,23.6,9.8h320.3c9.2,0,17-3.3,23.3-9.8,6.3-6.5,9.7-14.3,10.1-23.5v-194.4Z"/>
  <path class="cls-1" d="M155.06,202.5c2.13-2,5.44-1.97,7.57.03,7.55,7.08,14.63,14.71,21.25,22.97,3.01-3.94,6.43-8.23,10.12-11.73,2.16-2.02,5.5-2.02,7.66.03,9.46,9.02,17.47,20.94,23.1,32.26,5.55,11.16,9.24,22.56,9.24,30.6,0,34.89-27.29,64.36-61.25,64.36s-61.25-29.5-61.25-64.39c0-10.5,4.87-23.32,12.41-36.01,7.63-12.88,18.4-26.3,31.14-38.12ZM173.21,314.77c6.92,0,13.04-1.91,18.81-5.74,11.51-8.04,14.6-24.12,7.68-36.75-1.23-2.46-4.37-2.62-6.15-.55l-6.89,8.01c-1.8,2.08-5.06,2.02-6.75-.14-4.51-5.74-12.58-16-17.17-21.82-1.72-2.19-5-2.21-6.75-.03-9.24,11.62-13.89,18.95-13.89,27.18.03,18.73,13.86,29.83,31.12,29.83Z"/>
  <g>
    <path class="cls-1" d="M385.71,216.31c1.3,1.3,1.96,2.97,1.96,5s-.65,3.7-1.96,5c-1.31,1.31-2.97,1.96-5,1.96h-31.19v91.82c0,2.13-.73,3.92-2.18,5.37s-3.24,2.18-5.37,2.18-3.92-.73-5.37-2.18c-1.45-1.45-2.18-3.24-2.18-5.37v-91.82h-31.33c-2.03,0-3.7-.65-5-1.96-1.3-1.31-1.96-2.97-1.96-5s.65-3.7,1.96-5,2.97-1.96,5-1.96h77.61c2.03,0,3.7.65,5,1.96Z"/>
    <path class="cls-1" d="M341.97,340.98c-5.7,0-10.82-2.1-14.79-6.08-3.98-3.97-6.08-9.09-6.08-14.79v-78.49h-18c-5.61,0-10.6-2.03-14.43-5.86-3.84-3.84-5.86-8.83-5.86-14.43s2.03-10.6,5.86-14.43c3.84-3.84,8.83-5.86,14.43-5.86h77.61c5.61,0,10.6,2.03,14.43,5.86,3.84,3.83,5.86,8.83,5.86,14.43s-2.03,10.59-5.86,14.43c-3.84,3.84-8.83,5.87-14.44,5.87h-17.85v78.49c0,5.7-2.1,10.82-6.08,14.79-3.98,3.98-9.09,6.08-14.79,6.08Z"/>
  </g>
</svg>